<svg xmlns="http://www.w3.org/2000/svg" viewBox="0 0 1600 900" width="1600" height="900"><rect width="1600" height="900" fill="#0a0e0c"/><defs><linearGradient id="g" x1="0" y1="0" x2="0" y2="1"><stop offset="0" stop-color="#0f1410"/><stop offset="1" stop-color="#0a0e0c"/></linearGradient><radialGradient id="glow"><stop offset="0" stop-color="#14b8a6" stop-opacity="0.34"/><stop offset="1" stop-color="#14b8a6" stop-opacity="0"/></radialGradient></defs><rect width="1600" height="900" fill="url(#g)"/><ellipse cx="738" cy="466" rx="720" ry="495" fill="url(#glow)"/><line x1="100" y1="0" x2="100" y2="900" stroke="#14b8a6" stroke-opacity="0.07" stroke-width="1"/><line x1="200" y1="0" x2="200" y2="900" stroke="#14b8a6" stroke-opacity="0.07" stroke-width="1"/><line x1="300" y1="0" x2="300" y2="900" stroke="#14b8a6" stroke-opacity="0.07" stroke-width="1"/><line x1="400" y1="0" x2="400" y2="900" stroke="#14b8a6" stroke-opacity="0.07" stroke-width="1"/><line x1="500" y1="0" x2="500" y2="900" stroke="#14b8a6" stroke-opacity="0.07" stroke-width="1"/><line x1="600" y1="0" x2="600" y2="900" stroke="#14b8a6" stroke-opacity="0.07" stroke-width="1"/><line x1="700" y1="0" x2="700" y2="900" stroke="#14b8a6" stroke-opacity="0.07" stroke-width="1"/><line x1="800" y1="0" x2="800" y2="900" stroke="#14b8a6" stroke-opacity="0.07" stroke-width="1"/><line x1="900" y1="0" x2="900" y2="900" stroke="#14b8a6" stroke-opacity="0.07" stroke-width="1"/><line x1="1000" y1="0" x2="1000" y2="900" stroke="#14b8a6" stroke-opacity="0.07" stroke-width="1"/><line x1="1100" y1="0" x2="1100" y2="900" stroke="#14b8a6" stroke-opacity="0.07" stroke-width="1"/><line x1="1200" y1="0" x2="1200" y2="900" stroke="#14b8a6" stroke-opacity="0.07" stroke-width="1"/><line x1="1300" y1="0" x2="1300" y2="900" stroke="#14b8a6" stroke-opacity="0.07" stroke-width="1"/><line x1="1400" y1="0" x2="1400" y2="900" stroke="#14b8a6" stroke-opacity="0.07" stroke-width="1"/><line x1="1500" y1="0" x2="1500" y2="900" stroke="#14b8a6" stroke-opacity="0.07" stroke-width="1"/><line x1="113" y1="75" x2="140" y2="251" stroke="#14b8a6" stroke-opacity="0.088" stroke-width="1.4"/><line x1="113" y1="75" x2="295" y2="128" stroke="#14b8a6" stroke-opacity="0.060" stroke-width="1.4"/><line x1="140" y1="251" x2="106" y2="449" stroke="#14b8a6" stroke-opacity="0.036" stroke-width="1.4"/><line x1="140" y1="251" x2="295" y2="128" stroke="#14b8a6" stroke-opacity="0.041" stroke-width="1.4"/><line x1="140" y1="251" x2="219" y2="268" stroke="#14b8a6" stroke-opacity="0.325" stroke-width="1.4"/><line x1="140" y1="251" x2="238" y2="408" stroke="#14b8a6" stroke-opacity="0.074" stroke-width="1.4"/><line x1="106" y1="449" x2="109" y2="660" stroke="#14b8a6" stroke-opacity="0.008" stroke-width="1.4"/><line x1="106" y1="449" x2="219" y2="268" stroke="#14b8a6" stroke-opacity="0.005" stroke-width="1.4"/><line x1="106" y1="449" x2="238" y2="408" stroke="#14b8a6" stroke-opacity="0.185" stroke-width="1.4"/><line x1="109" y1="660" x2="131" y2="819" stroke="#14b8a6" stroke-opacity="0.131" stroke-width="1.4"/><line x1="109" y1="660" x2="287" y2="661" stroke="#14b8a6" stroke-opacity="0.088" stroke-width="1.4"/><line x1="131" y1="819" x2="306" y2="766" stroke="#14b8a6" stroke-opacity="0.079" stroke-width="1.4"/><line x1="295" y1="128" x2="219" y2="268" stroke="#14b8a6" stroke-opacity="0.134" stroke-width="1.4"/><line x1="295" y1="128" x2="394" y2="106" stroke="#14b8a6" stroke-opacity="0.276" stroke-width="1.4"/><line x1="295" y1="128" x2="472" y2="242" stroke="#14b8a6" stroke-opacity="0.012" stroke-width="1.4"/><line x1="219" y1="268" x2="238" y2="408" stroke="#14b8a6" stroke-opacity="0.180" stroke-width="1.4"/><line x1="287" y1="661" x2="306" y2="766" stroke="#14b8a6" stroke-opacity="0.260" stroke-width="1.4"/><line x1="287" y1="661" x2="496" y2="639" stroke="#14b8a6" stroke-opacity="0.013" stroke-width="1.4"/><line x1="287" y1="661" x2="399" y2="828" stroke="#14b8a6" stroke-opacity="0.032" stroke-width="1.4"/><line x1="306" y1="766" x2="399" y2="828" stroke="#14b8a6" stroke-opacity="0.248" stroke-width="1.4"/><line x1="394" y1="106" x2="472" y2="242" stroke="#14b8a6" stroke-opacity="0.142" stroke-width="1.4"/><line x1="394" y1="106" x2="573" y2="53" stroke="#14b8a6" stroke-opacity="0.068" stroke-width="1.4"/><line x1="472" y1="242" x2="573" y2="53" stroke="#14b8a6" stroke-opacity="0.002" stroke-width="1.4"/><line x1="472" y1="242" x2="665" y2="250" stroke="#14b8a6" stroke-opacity="0.053" stroke-width="1.4"/><line x1="444" y1="496" x2="496" y2="639" stroke="#14b8a6" stroke-opacity="0.152" stroke-width="1.4"/><line x1="444" y1="496" x2="638" y2="426" stroke="#14b8a6" stroke-opacity="0.021" stroke-width="1.4"/><line x1="444" y1="496" x2="598" y2="632" stroke="#14b8a6" stroke-opacity="0.023" stroke-width="1.4"/><line x1="496" y1="639" x2="399" y2="828" stroke="#14b8a6" stroke-opacity="0.007" stroke-width="1.4"/><line x1="496" y1="639" x2="598" y2="632" stroke="#14b8a6" stroke-opacity="0.273" stroke-width="1.4"/><line x1="665" y1="250" x2="638" y2="426" stroke="#14b8a6" stroke-opacity="0.090" stroke-width="1.4"/><line x1="665" y1="250" x2="809" y2="103" stroke="#14b8a6" stroke-opacity="0.022" stroke-width="1.4"/><line x1="665" y1="250" x2="780" y2="276" stroke="#14b8a6" stroke-opacity="0.234" stroke-width="1.4"/><line x1="638" y1="426" x2="598" y2="632" stroke="#14b8a6" stroke-opacity="0.012" stroke-width="1.4"/><line x1="638" y1="426" x2="780" y2="276" stroke="#14b8a6" stroke-opacity="0.021" stroke-width="1.4"/><line x1="638" y1="426" x2="842" y2="478" stroke="#14b8a6" stroke-opacity="0.013" stroke-width="1.4"/><line x1="598" y1="632" x2="639" y2="810" stroke="#14b8a6" stroke-opacity="0.079" stroke-width="1.4"/><line x1="598" y1="632" x2="768" y2="621" stroke="#14b8a6" stroke-opacity="0.107" stroke-width="1.4"/><line x1="639" y1="810" x2="800" y2="805" stroke="#14b8a6" stroke-opacity="0.130" stroke-width="1.4"/><line x1="809" y1="103" x2="780" y2="276" stroke="#14b8a6" stroke-opacity="0.096" stroke-width="1.4"/><line x1="809" y1="103" x2="1019" y2="72" stroke="#14b8a6" stroke-opacity="0.008" stroke-width="1.4"/><line x1="780" y1="276" x2="842" y2="478" stroke="#14b8a6" stroke-opacity="0.009" stroke-width="1.4"/><line x1="780" y1="276" x2="966" y2="275" stroke="#14b8a6" stroke-opacity="0.070" stroke-width="1.4"/><line x1="842" y1="478" x2="768" y2="621" stroke="#14b8a6" stroke-opacity="0.130" stroke-width="1.4"/><line x1="842" y1="478" x2="1000" y2="423" stroke="#14b8a6" stroke-opacity="0.116" stroke-width="1.4"/><line x1="842" y1="478" x2="973" y2="604" stroke="#14b8a6" stroke-opacity="0.080" stroke-width="1.4"/><line x1="768" y1="621" x2="800" y2="805" stroke="#14b8a6" stroke-opacity="0.069" stroke-width="1.4"/><line x1="768" y1="621" x2="973" y2="604" stroke="#14b8a6" stroke-opacity="0.023" stroke-width="1.4"/><line x1="1019" y1="72" x2="966" y2="275" stroke="#14b8a6" stroke-opacity="0.014" stroke-width="1.4"/><line x1="1019" y1="72" x2="1170" y2="46" stroke="#14b8a6" stroke-opacity="0.147" stroke-width="1.4"/><line x1="966" y1="275" x2="1000" y2="423" stroke="#14b8a6" stroke-opacity="0.152" stroke-width="1.4"/><line x1="1000" y1="423" x2="973" y2="604" stroke="#14b8a6" stroke-opacity="0.079" stroke-width="1.4"/><line x1="1000" y1="423" x2="1128" y2="459" stroke="#14b8a6" stroke-opacity="0.198" stroke-width="1.4"/><line x1="973" y1="604" x2="1029" y2="776" stroke="#14b8a6" stroke-opacity="0.083" stroke-width="1.4"/><line x1="973" y1="604" x2="1128" y2="459" stroke="#14b8a6" stroke-opacity="0.006" stroke-width="1.4"/><line x1="1029" y1="776" x2="1108" y2="783" stroke="#14b8a6" stroke-opacity="0.329" stroke-width="1.4"/><line x1="1170" y1="46" x2="1207" y2="234" stroke="#14b8a6" stroke-opacity="0.056" stroke-width="1.4"/><line x1="1170" y1="46" x2="1319" y2="114" stroke="#14b8a6" stroke-opacity="0.125" stroke-width="1.4"/><line x1="1207" y1="234" x2="1319" y2="114" stroke="#14b8a6" stroke-opacity="0.124" stroke-width="1.4"/><line x1="1207" y1="234" x2="1376" y2="295" stroke="#14b8a6" stroke-opacity="0.087" stroke-width="1.4"/><line x1="1128" y1="459" x2="1187" y2="622" stroke="#14b8a6" stroke-opacity="0.099" stroke-width="1.4"/><line x1="1128" y1="459" x2="1332" y2="461" stroke="#14b8a6" stroke-opacity="0.028" stroke-width="1.4"/><line x1="1187" y1="622" x2="1108" y2="783" stroke="#14b8a6" stroke-opacity="0.086" stroke-width="1.4"/><line x1="1187" y1="622" x2="1363" y2="614" stroke="#14b8a6" stroke-opacity="0.094" stroke-width="1.4"/><line x1="1319" y1="114" x2="1376" y2="295" stroke="#14b8a6" stroke-opacity="0.060" stroke-width="1.4"/><line x1="1319" y1="114" x2="1516" y2="50" stroke="#14b8a6" stroke-opacity="0.017" stroke-width="1.4"/><line x1="1376" y1="295" x2="1332" y2="461" stroke="#14b8a6" stroke-opacity="0.107" stroke-width="1.4"/><line x1="1376" y1="295" x2="1541" y2="225" stroke="#14b8a6" stroke-opacity="0.085" stroke-width="1.4"/><line x1="1376" y1="295" x2="1507" y2="417" stroke="#14b8a6" stroke-opacity="0.087" stroke-width="1.4"/><line x1="1332" y1="461" x2="1363" y2="614" stroke="#14b8a6" stroke-opacity="0.141" stroke-width="1.4"/><line x1="1332" y1="461" x2="1507" y2="417" stroke="#14b8a6" stroke-opacity="0.083" stroke-width="1.4"/><line x1="1363" y1="614" x2="1384" y2="819" stroke="#14b8a6" stroke-opacity="0.022" stroke-width="1.4"/><line x1="1363" y1="614" x2="1474" y2="646" stroke="#14b8a6" stroke-opacity="0.241" stroke-width="1.4"/><line x1="1384" y1="819" x2="1474" y2="646" stroke="#14b8a6" stroke-opacity="0.048" stroke-width="1.4"/><line x1="1384" y1="819" x2="1521" y2="819" stroke="#14b8a6" stroke-opacity="0.187" stroke-width="1.4"/><line x1="1516" y1="50" x2="1541" y2="225" stroke="#14b8a6" stroke-opacity="0.092" stroke-width="1.4"/><line x1="1541" y1="225" x2="1507" y2="417" stroke="#14b8a6" stroke-opacity="0.049" stroke-width="1.4"/><line x1="1474" y1="646" x2="1521" y2="819" stroke="#14b8a6" stroke-opacity="0.088" stroke-width="1.4"/><circle cx="113" cy="75" r="2.6" fill="#14b8a6" fill-opacity="0.78"/><circle cx="140" cy="251" r="13" fill="#5eead4" fill-opacity="0.18"/><circle cx="140" cy="251" r="4.2" fill="#5eead4"/><circle cx="106" cy="449" r="2.6" fill="#14b8a6" fill-opacity="0.78"/><circle cx="109" cy="660" r="2.6" fill="#14b8a6" fill-opacity="0.78"/><circle cx="131" cy="819" r="2.6" fill="#14b8a6" fill-opacity="0.78"/><circle cx="295" cy="128" r="2.6" fill="#14b8a6" fill-opacity="0.78"/><circle cx="219" cy="268" r="2.6" fill="#14b8a6" fill-opacity="0.78"/><circle cx="238" cy="408" r="2.6" fill="#14b8a6" fill-opacity="0.78"/><circle cx="287" cy="661" r="2.6" fill="#14b8a6" fill-opacity="0.78"/><circle cx="306" cy="766" r="2.6" fill="#14b8a6" fill-opacity="0.78"/><circle cx="394" cy="106" r="2.6" fill="#14b8a6" fill-opacity="0.78"/><circle cx="472" cy="242" r="2.6" fill="#14b8a6" fill-opacity="0.78"/><circle cx="444" cy="496" r="2.6" fill="#14b8a6" fill-opacity="0.78"/><circle cx="496" cy="639" r="2.6" fill="#14b8a6" fill-opacity="0.78"/><circle cx="399" cy="828" r="2.6" fill="#14b8a6" fill-opacity="0.78"/><circle cx="573" cy="53" r="13" fill="#5eead4" fill-opacity="0.18"/><circle cx="573" cy="53" r="4.2" fill="#5eead4"/><circle cx="665" cy="250" r="2.6" fill="#14b8a6" fill-opacity="0.78"/><circle cx="638" cy="426" r="2.6" fill="#14b8a6" fill-opacity="0.78"/><circle cx="598" cy="632" r="2.6" fill="#14b8a6" fill-opacity="0.78"/><circle cx="639" cy="810" r="13" fill="#5eead4" fill-opacity="0.18"/><circle cx="639" cy="810" r="4.2" fill="#5eead4"/><circle cx="809" cy="103" r="2.6" fill="#14b8a6" fill-opacity="0.78"/><circle cx="780" cy="276" r="13" fill="#5eead4" fill-opacity="0.18"/><circle cx="780" cy="276" r="4.2" fill="#5eead4"/><circle cx="842" cy="478" r="2.6" fill="#14b8a6" fill-opacity="0.78"/><circle cx="768" cy="621" r="2.6" fill="#14b8a6" fill-opacity="0.78"/><circle cx="800" cy="805" r="13" fill="#5eead4" fill-opacity="0.18"/><circle cx="800" cy="805" r="4.2" fill="#5eead4"/><circle cx="1019" cy="72" r="2.6" fill="#14b8a6" fill-opacity="0.78"/><circle cx="966" cy="275" r="2.6" fill="#14b8a6" fill-opacity="0.78"/><circle cx="1000" cy="423" r="13" fill="#5eead4" fill-opacity="0.18"/><circle cx="1000" cy="423" r="4.2" fill="#5eead4"/><circle cx="973" cy="604" r="2.6" fill="#14b8a6" fill-opacity="0.78"/><circle cx="1029" cy="776" r="2.6" fill="#14b8a6" fill-opacity="0.78"/><circle cx="1170" cy="46" r="2.6" fill="#14b8a6" fill-opacity="0.78"/><circle cx="1207" cy="234" r="13" fill="#5eead4" fill-opacity="0.18"/><circle cx="1207" cy="234" r="4.2" fill="#5eead4"/><circle cx="1128" cy="459" r="2.6" fill="#14b8a6" fill-opacity="0.78"/><circle cx="1187" cy="622" r="2.6" fill="#14b8a6" fill-opacity="0.78"/><circle cx="1108" cy="783" r="2.6" fill="#14b8a6" fill-opacity="0.78"/><circle cx="1319" cy="114" r="2.6" fill="#14b8a6" fill-opacity="0.78"/><circle cx="1376" cy="295" r="2.6" fill="#14b8a6" fill-opacity="0.78"/><circle cx="1332" cy="461" r="2.6" fill="#14b8a6" fill-opacity="0.78"/><circle cx="1363" cy="614" r="2.6" fill="#14b8a6" fill-opacity="0.78"/><circle cx="1384" cy="819" r="2.6" fill="#14b8a6" fill-opacity="0.78"/><circle cx="1516" cy="50" r="2.6" fill="#14b8a6" fill-opacity="0.78"/><circle cx="1541" cy="225" r="2.6" fill="#14b8a6" fill-opacity="0.78"/><circle cx="1507" cy="417" r="2.6" fill="#14b8a6" fill-opacity="0.78"/><circle cx="1474" cy="646" r="2.6" fill="#14b8a6" fill-opacity="0.78"/><circle cx="1521" cy="819" r="2.6" fill="#14b8a6" fill-opacity="0.78"/></svg>